:SAMPLES-PER-SECOND 30
:FRAME-RANGE 1-3358
:FULLY-SPECIFIED
:DEGREES
1260
root  14.3818 38.527 -7.71865 17.0944 73.6068 11.8161
RightUpLeg  -10.9427 3.37315 5.95881
RightLeg  27.9062 3.40236 1.7275
RightFoot  -18.7907 -0.781519 -10.0269
RightToes  -1.11029e-010 1.2921e-014 -6.02303e-014
Spine  5.03318 4.66991 8.5242
Spine1  6.91583 8.06449 -11.4909
HEad  17.9144 3.21512 -6.69208
LeftShoulder1  1.36647 -2.48491 -17.183
LeftArm  18.242 -8.35247 -47.0424
LeftForeArm  29.8853 -6.84919 -14.109
LeftHand  -0.0251 5.44315 2.96799
RightShoulder  2.45089 10.9033 10.0901
RightArm  -4.20059 56.253 74.4008
RightForeArm  61.3506 -5.60468 3.40423
RightHand  -0.0517152 -4.97537 -9.1314
LeftUpLeg  -28.7064 -3.39885 -1.5931
LeftLeg  4.36946 -13.7948 -0.509827
LeftFoot  -6.88971 0.878015 -21.3152
LeftToes  -1.90334e-010 -8.83595e-011 4.99953e-011
1261
root  13.7696 38.8213 -8.13919 20.8623 77.1314 15.6447
RightUpLeg  -11.3328 0.890606 5.47809
RightLeg  25.9729 2.82649 1.27755
RightFoot  -17.0451 -0.563471 -8.98059
RightToes  -1.11029e-010 1.2921e-014 -6.02303e-014
Spine  4.40064 4.18276 9.40303
Spine1  6.45975 7.37664 -11.0721
HEad  18.8558 6.11761 -8.25258
LeftShoulder1  1.29538 -2.04873 -17.8261
LeftArm  18.3859 -6.48407 -45.5436
LeftForeArm  28.8952 -8.23024 -13.4757
LeftHand  -0.0277914 5.3046 3.44812
RightShoulder  2.33464 10.4984 9.71275
RightArm  -4.70008 56.7188 72.1992
RightForeArm  59.777 -2.05627 4.34975
RightHand  -0.075871 -4.68746 -9.64177
LeftUpLeg  -27.8851 -4.09326 -1.99738
LeftLeg  3.48482 -3.9108 1.63302
LeftFoot  -3.58675 1.19127 -17.152
LeftToes  -1.90334e-010 -8.83595e-011 4.99953e-011
1262
root  13.2291 39.1003 -8.49402 28.2662 81.1476 23.3174
RightUpLeg  -11.0273 -1.45578 5.25463
RightLeg  23.5172 1.34312 0.422938
RightFoot  -15.361 -0.376632 -7.76464
RightToes  -1.11029e-010 1.2921e-014 -6.02303e-014
Spine  3.73595 3.84358 9.88025
Spine1  6.03233 6.68131 -10.2211
HEad  19.4508 7.34554 -8.62304
LeftShoulder1  1.30975 -2.06584 -18.0323
LeftArm  17.0088 -5.42351 -44.7219
LeftForeArm  29.0674 -8.1825 -13.332
LeftHand  -0.0256956 5.37358 3.86617
RightShoulder  2.2199 9.82076 9.70833
RightArm  -6.48678 56.5299 67.7291
RightForeArm  57.8816 2.443 5.57375
RightHand  -0.0955781 -4.43378 -9.59405
LeftUpLeg  -26.9375 -3.9232 -1.98076
LeftLeg  5.17279 -0.0152748 2.14993
LeftFoot  -0.868987 1.21087 -13.1115
LeftToes  -1.90334e-010 -8.83595e-011 4.99953e-011
1263
root  12.7421 39.3262 -8.81306 44.185 84.6893 39.6385
RightUpLeg  -10.5871 -4.39715 5.06938
RightLeg  21.4989 0.523809 0.0121472
RightFoot  -13.9428 -0.247005 -6.72514
RightToes  -1.11029e-010 1.2921e-014 -6.02303e-014
Spine  3.28472 3.83954 10.5011
Spine1  5.36005 6.38038 -9.66993
HEad  20.2204 7.66596 -8.00211
LeftShoulder1  1.29605 -2.03398 -17.9119
LeftArm  14.0907 -5.19294 -44.4902
LeftForeArm  30.7011 -6.91395 -13.5362
LeftHand  -0.0263396 5.55882 4.15952
RightShoulder  2.1167 9.02513 9.9874
RightArm  -9.42379 55.3417 61.8862
RightForeArm  56.0845 7.30125 6.72809
RightHand  -0.113996 -4.20338 -9.62539
LeftUpLeg  -25.6133 -4.01891 -1.07341
LeftLeg  8.10192 1.78714 2.26896
LeftFoot  -1.15189 1.17658 -13.0755
LeftToes  -1.90334e-010 -8.83595e-011 4.99953e-011
1264
root  12.2976 39.4992 -9.1413 86.9949 86.9906 82.8067
RightUpLeg  -10.2376 -7.83598 5.05294
RightLeg  19.804 0.446433 -0.0355943
RightFoot  -12.6976 -0.156863 -6.00567
RightToes  -1.11029e-010 1.2921e-014 -6.02303e-014
Spine  2.87178 3.97165 11.5074
Spine1  4.51291 6.35649 -9.60562
HEad  21.2789 8.03496 -7.10443
LeftShoulder1  1.23588 -1.7687 -18.0007
LeftArm  11.6759 -5.23062 -44.2535
LeftForeArm  32.0106 -5.57362 -13.73
LeftHand  -0.027327 5.46687 4.14343
RightShoulder  2.07671 8.54431 10.3847
RightArm  -8.82095 53.2118 55.6891
RightForeArm  50.4272 12.5061 6.94852
RightHand  -0.116486 -4.18577 -9.73942
LeftUpLeg  -24.2776 -4.58353 0.752952
LeftLeg  11.8084 2.97022 2.05307
LeftFoot  -1.78228 1.05284 -12.4269
LeftToes  -1.90334e-010 -8.83595e-011 4.99953e-011
